# xmcd
#
# Track frame offsets:
#       150
#       7272
#       13616
#       16872
#       18328
#       19540
#       22245
#       23621
#       26734
#       31571
#       34929
#       39346
#       41707
#       43605
#       48064
#       53716
#       56221
#       59447
#       67427
#       73437
#       80102
#       89514
#       92875
#       96123
#       99546
#       103899
#       107790
#       112711
#       116846
#       122000
#       126598
#       130170
#       132909
#       135113
#       136581
#       138582
#       143115
#       143786
#       149439
#       158479
#       159415
#       170059
#       171998
#       173120
#       174544
#       176167
#       177661
#       179319
#       180785
#       187550
#       190122
#       194236
#       197171
#       205578
#       207749
#       211094
#       212245
#       215981
#       218538
#       232158
#       232874
#       235537
#       238938
#       253407
#       255552
#       269297
#       271977
#       277610
#       284022
#       285376
#       289257
#       291125
#       292668
#       299821
#       311198
#       313117
#
# Disc length: 4308 seconds
#
# Revision: 1
# Processed by: cddbd v1.5.2PL0 Copyright (c) Steve Scherf et al.
# Submitted via: CD-DA_X-Tractor v0.21
#
DISCID=8e10d24c
DTITLE=Paul Butterfield - Teaches Blues Harmonica Master
DYEAR=1900
DGENRE=Blues
TTITLE0=01 Intro Music
TTITLE1=02 Intro and Harmonica Techniques
TTITLE2=03 Simple Melody 1
TTITLE3=04 Sound Production
TTITLE4=05 Simple Melody 2
TTITLE5=06 Harmonica and Bending-Talk
TTITLE6=07 Expanding on Simple Melody-Talk
TTITLE7=08 Expanding on Simple Melody
TTITLE8=09 Bending the First Reed
TTITLE9=10 Simple Melody Variations with Bending
TTITLE10=11 Using the Tongue-Choking
TTITLE11=12 Using the Tongue-Blocking
TTITLE12=13 Simple Melody 3 with Acoonmpaniment -Talk
TTITLE13=14 Simple Melody with Accompaniment"
TTITLE14=15 Combined Melodies 1 and 2-Talk and Example 1
TTITLE15=16 Combined Melodies 1 and 2-Talk and Example 2
TTITLE16=17 Combined Melodies 1 and 2 with Bending-Talk and Example
TTITLE17=18 Combined Melodies in 12-Bar Blues-Talk and Example
TTITLE18=19 Playing te Dominant Seventh
TTITLE19=20 Descending Line-Talk and Example
TTITLE20=21 12-Bar Blues Quicker Tempo
TTITLE21=22 Talk
TTITLE22=23 Sonny Boy Williamson-Talk and Example
TTITLE23=24 Little Walter-Talk and Example
TTITLE24=25 Junior Parker-Talk and Example
TTITLE25=26 Influences-Talk
TTITLE26=27 Trills
TTITLE27=28 Octaves
TTITLE28=29 Tremulent
TTITLE29=30 Tremulet and Octave
TTITLE30=31 Trill Techniques
TTITLE31=32 Phrasing Techniques
TTITLE32=33 Rhythm Development-Talk
TTITLE33=34 Example #1
TTITLE34=35 Example #2 with Octaves and Tremulent
TTITLE35=36 Example #3 with Octaves and Single Notes
TTITLE36=37 Talk
TTITLE37=38 Rhythm #1 Breakdown
TTITLE38=39 Paul Plays
TTITLE39=40 Talk
TTITLE40=41 Rock Me
TTITLE41=42 Turnaround Talk
TTITLE42=43 Turnaround Example #1
TTITLE43=61 Electric Harmonica-Example
TTITLE44=45 Turnaround Example #3
TTITLE45=46 Turnaround Example #4
TTITLE46=47 Turnaround Example #5
TTITLE47=48 Turnaround End Talk
TTITLE48=49 My Babe
TTITLE49=50 My Babe-Talk
TTITLE50=51 My Babe-Unaccompanied
TTITLE51=52 A and D Harmonicas in E Minor-Talk
TTITLE52=53 A and D Harmonicas in E Minor-Example
TTITLE53=54 D Harp in E Minor-Talk
TTITLE54=55 D Harp in E Minor-Example
TTITLE55=56 A Harp in E Minor-Talk
TTITLE56=57 A Harp in E Minor-Example
TTITLE57=58 St.James Infirmary-Talk
TTITLE58=59 St.James Infirmary-Example
TTITLE59=60 Talk
TTITLE60=61 Electric Harmonica-Example
TTITLE61=62 Mic Technique
TTITLE62=63 Caress Me Baby
TTITLE63=64 About Singing
TTITLE64=65 Why Do People Act Like That
TTITLE65=66 Talk
TTITLE66=67 Electric Harmonica Blues
TTITLE67=68 Acoustic Harmonica Blues
TTITLE68=69 Nobody's Fault But Mine-Talk
TTITLE69=70 Nobody's Fault But Mine-Phrasing Example
TTITLE70=71 Nobody's Fault But Mine-Talk and Example
TTITLE71=72 Key To The Highway-Talk
TTITLE72=73 Key To The Highway
TTITLE73=74 Key To The Highway-Slow and At Tempo
TTITLE74=75 End Talk
TTITLE75=76 End Music 12-Bar Blues"
EXTD=
EXTT0=
EXTT1=
EXTT2=
EXTT3=
EXTT4=
EXTT5=
EXTT6=
EXTT7=
EXTT8=
EXTT9=
EXTT10=
EXTT11=
EXTT12=
EXTT13=
EXTT14=
EXTT15=
EXTT16=
EXTT17=
EXTT18=
EXTT19=
EXTT20=
EXTT21=
EXTT22=
EXTT23=
EXTT24=
EXTT25=
EXTT26=
EXTT27=
EXTT28=
EXTT29=
EXTT30=
EXTT31=
EXTT32=
EXTT33=
EXTT34=
EXTT35=
EXTT36=
EXTT37=
EXTT38=
EXTT39=
EXTT40=
EXTT41=
EXTT42=
EXTT43=
EXTT44=
EXTT45=
EXTT46=
EXTT47=
EXTT48=
EXTT49=
EXTT50=
EXTT51=
EXTT52=
EXTT53=
EXTT54=
EXTT55=
EXTT56=
EXTT57=
EXTT58=
EXTT59=
EXTT60=
EXTT61=
EXTT62=
EXTT63=
EXTT64=
EXTT65=
EXTT66=
EXTT67=
EXTT68=
EXTT69=
EXTT70=
EXTT71=
EXTT72=
EXTT73=
EXTT74=
EXTT75=
PLAYORDER=
